<mxfile host="app.diagrams.net" modified="2023-04-13T00:30:10.783Z" agent="Mozilla/5.0 (Windows NT 10.0; Win64; x64) AppleWebKit/537.36 (KHTML, like Gecko) Chrome/111.0.0.0 Safari/537.36" version="21.1.6" etag="U4AvHDn85bah5V0PWkbj" type="github">
  <diagram name="第 1 页" id="bAZPB5xpADVbcvGAZvzh">
    <mxGraphModel>
      <root>
        <mxCell id="0" />
        <mxCell id="1" parent="0" />
      </root>
    </mxGraphModel>
  </diagram>
</mxfile>
